<?xml version="1.0" encoding="UTF-8"?>
<svg xmlns="http://www.w3.org/2000/svg" xmlns:xlink="http://www.w3.org/1999/xlink" width="100px" height="100px" viewBox="0 0 100 100" version="1.1">
<g id="surface1">
<path style=" stroke:none;fill-rule:evenodd;fill:rgb(0%,0%,0%);fill-opacity:1;" d="M 50 0 C 77.613281 0 100 22.949219 100 51.265625 C 100 73.910156 85.691406 93.121094 65.835938 99.90625 C 63.300781 100.410156 62.398438 98.808594 62.398438 97.445312 C 62.398438 95.753906 62.460938 90.234375 62.460938 83.375 C 62.460938 78.59375 60.859375 75.476562 59.066406 73.886719 C 70.199219 72.613281 81.898438 68.28125 81.898438 48.589844 C 81.898438 42.988281 79.960938 38.421875 76.75 34.828125 C 77.269531 33.535156 78.984375 28.320312 76.261719 21.261719 C 76.261719 21.261719 72.070312 19.886719 62.523438 26.515625 C 58.53125 25.378906 54.25 24.808594 50 24.789062 C 45.75 24.808594 41.476562 25.378906 37.484375 26.515625 C 27.929688 19.886719 23.730469 21.261719 23.730469 21.261719 C 21.015625 28.320312 22.730469 33.535156 23.246094 34.828125 C 20.050781 38.421875 18.09375 42.988281 18.09375 48.589844 C 18.09375 68.230469 29.769531 72.628906 40.875 73.925781 C 39.445312 75.203125 38.148438 77.464844 37.699219 80.78125 C 34.851562 82.089844 27.609375 84.355469 23.148438 76.519531 C 23.148438 76.519531 20.503906 71.59375 15.484375 71.234375 C 15.484375 71.234375 10.609375 71.171875 15.144531 74.351562 C 15.144531 74.351562 18.421875 75.925781 20.695312 81.851562 C 20.695312 81.851562 23.628906 91 37.539062 87.898438 C 37.566406 92.183594 37.609375 96.226562 37.609375 97.445312 C 37.609375 98.800781 36.691406 100.386719 34.195312 99.910156 C 14.324219 93.136719 0 73.914062 0 51.265625 C 0 22.949219 22.390625 0 50 0 "/>
</g>
</svg>
