<?xml version="1.0" encoding="UTF-8"?>
<svg xmlns="http://www.w3.org/2000/svg" xmlns:xlink="http://www.w3.org/1999/xlink" width="100px" height="100px" viewBox="0 0 100 100" version="1.1">
<g id="surface1">
<path style=" stroke:none;fill-rule:nonzero;fill:rgb(0%,0%,0%);fill-opacity:1;" d="M 52.425781 87.023438 L 52.449219 87.023438 C 52.507812 87.171875 50.203125 93.546875 49.367188 95.570312 C 49.175781 96.023438 49.109375 96.132812 49.007812 96.128906 C 47.136719 95.894531 45.273438 95.632812 43.410156 95.347656 C 39.871094 94.808594 33.945312 93.773438 32.453125 93.433594 L 32.105469 93.355469 L 34.226562 92.882812 C 38.773438 91.859375 40.957031 91.304688 43.171875 90.628906 C 46.480469 89.601562 49.246094 88.511719 51.914062 87.242188 L 51.523438 87.414062 C 51.757812 87.289062 52.0625 87.164062 52.367188 87.050781 L 52.429688 87.03125 Z M 34.761719 82.882812 C 34.78125 82.898438 33.773438 84.511719 32.007812 87.304688 C 31.257812 88.476562 30.410156 89.820312 30.117188 90.277344 C 29.824219 90.738281 29.398438 91.441406 29.175781 91.839844 L 28.757812 92.5625 L 28.546875 92.507812 C 28.039062 92.371094 24.449219 91.101562 23.507812 90.726562 C 22.164062 90.195312 21.078125 89.6875 20.023438 89.121094 L 20.203125 89.210938 C 19.269531 88.742188 18.46875 88.226562 17.726562 87.636719 L 17.753906 87.660156 L 22.070312 86.480469 C 28.285156 84.789062 31.726562 83.8125 33.976562 83.105469 C 34.402344 82.976562 34.757812 82.875 34.757812 82.882812 Z M 37.269531 82.8125 C 37.28125 82.800781 37.914062 83.023438 38.679688 83.3125 C 40.078125 83.867188 41.835938 84.429688 43.632812 84.878906 L 43.941406 84.945312 C 46.167969 85.523438 48.875 86.007812 51.636719 86.304688 L 51.898438 86.324219 C 52.210938 86.351562 52.371094 86.386719 52.324219 86.417969 C 52.226562 86.480469 50.136719 87.175781 48.601562 87.660156 C 42.585938 89.492188 36.550781 91.265625 30.5 92.980469 C 30.492188 92.980469 30.476562 92.980469 30.464844 92.980469 C 30.253906 92.980469 30.054688 92.921875 29.882812 92.820312 L 29.886719 92.824219 C 30.136719 92.464844 30.386719 92.152344 30.648438 91.851562 L 30.640625 91.863281 C 32.554688 89.582031 34.453125 87.054688 36.207031 84.429688 L 36.402344 84.117188 C 36.6875 83.679688 36.976562 83.242188 37.261719 82.804688 Z M 25.945312 74.714844 L 26.398438 75.226562 C 28.289062 77.367188 30.488281 79.179688 32.9375 80.601562 L 33.0625 80.671875 C 33.351562 80.820312 33.601562 80.984375 33.828125 81.175781 L 33.820312 81.171875 C 28.199219 83.210938 22.566406 85.199219 16.914062 87.148438 C 16.816406 87.089844 16.722656 87.027344 16.632812 86.960938 L 16.367188 86.773438 L 16.777344 86.179688 C 18.105469 84.253906 19.777344 82.136719 23.4375 77.734375 Z M 24.128906 74.023438 C 24.164062 74.054688 22.355469 76.640625 19.832031 80.175781 L 17.539062 83.386719 C 17.160156 83.929688 16.582031 84.785156 16.253906 85.292969 L 15.65625 86.214844 L 15.023438 85.679688 C 14.070312 84.84375 13.210938 83.960938 12.414062 83.023438 L 12.382812 82.984375 C 11.300781 81.707031 10.476562 80.167969 10.027344 78.480469 L 10.007812 78.398438 C 9.863281 77.722656 9.851562 77.378906 9.996094 77.335938 C 12.511719 76.726562 15.027344 76.136719 17.550781 75.554688 L 22.628906 74.367188 C 23.445312 74.167969 24.117188 74.011719 24.128906 74.019531 Z M 56.492188 72.914062 L 56.5 72.929688 C 56.5 73.242188 55.785156 76.164062 55.1875 78.277344 C 54.6875 80.046875 54.265625 81.433594 53.488281 83.890625 C 53.289062 84.554688 53.070312 85.210938 52.832031 85.859375 C 48.398438 85.089844 44.464844 83.949219 40.722656 82.433594 L 41.117188 82.574219 C 40.269531 82.242188 39.433594 81.875 38.617188 81.46875 C 39.128906 81.179688 39.753906 80.878906 40.398438 80.617188 L 40.515625 80.570312 C 46.976562 77.757812 53.671875 74.546875 55.960938 73.167969 C 56.109375 73.058594 56.285156 72.976562 56.476562 72.921875 L 56.488281 72.917969 Z M 42.472656 68.023438 C 42.394531 68.285156 42.308594 68.503906 42.210938 68.714844 L 42.226562 68.679688 C 40.542969 72.640625 38.894531 75.898438 37.066406 79.039062 L 37.300781 78.601562 C 36.988281 79.171875 36.660156 79.738281 36.316406 80.289062 C 36.296875 80.289062 35.871094 80.035156 35.363281 79.726562 C 32.484375 77.992188 30.035156 75.898438 27.976562 73.453125 L 27.941406 73.410156 L 27.691406 73.097656 L 28.988281 72.742188 C 33.898438 71.417969 38.042969 69.945312 42.039062 68.203125 L 41.445312 68.433594 C 42 68.199219 42.460938 68.007812 42.464844 68.023438 Z M 44.726562 67.28125 C 45.039062 67.429688 45.289062 67.570312 45.53125 67.71875 L 45.496094 67.699219 C 48.625 69.480469 52.25 70.929688 56.074219 71.863281 L 56.367188 71.921875 L 56.695312 72 L 56.242188 72.246094 C 54.363281 73.292969 48.15625 75.875 41.820312 78.25 C 41.148438 78.5 40.480469 78.753906 39.816406 79.007812 C 39.722656 79.054688 39.617188 79.089844 39.503906 79.109375 L 39.496094 79.109375 C 39.496094 79.09375 39.757812 78.59375 40.078125 77.992188 C 41.644531 75.15625 43.148438 71.796875 44.394531 68.3125 L 44.546875 67.820312 C 44.636719 67.539062 44.71875 67.292969 44.730469 67.285156 Z M 22.589844 63.316406 C 22.648438 63.316406 22.632812 63.425781 22.542969 63.945312 C 22.464844 64.449219 22.414062 64.957031 22.382812 65.464844 C 22.367188 65.679688 22.359375 65.929688 22.359375 66.179688 C 22.359375 68.007812 22.832031 69.726562 23.660156 71.21875 L 23.632812 71.164062 C 23.917969 71.75 24.148438 72.234375 24.132812 72.242188 C 24.027344 72.335938 14.644531 75.078125 11.695312 75.886719 L 9.992188 76.355469 C 9.886719 76.386719 9.882812 76.367188 9.914062 76.121094 C 10.636719 73.308594 12.085938 70.898438 14.039062 69.019531 L 14.046875 69.011719 C 15.378906 67.609375 16.914062 66.417969 18.617188 65.488281 L 18.710938 65.441406 C 19.992188 64.707031 21.285156 63.996094 22.585938 63.3125 Z M 57.785156 59.125 L 57.785156 59.726562 C 57.742188 63.882812 57.382812 67.925781 56.726562 71.867188 L 56.789062 71.410156 C 53.953125 70.582031 51.492188 69.539062 49.1875 68.257812 L 49.375 68.351562 C 48.085938 67.675781 47.003906 66.996094 45.96875 66.257812 L 46.054688 66.316406 C 46.070312 66.300781 46.65625 65.992188 47.359375 65.625 C 50.433594 64.035156 52.976562 62.523438 55.421875 60.882812 L 55.121094 61.070312 C 55.988281 60.492188 57.289062 59.554688 57.578125 59.300781 Z M 33.304688 58.132812 C 32.820312 59.320312 32.351562 60.285156 31.835938 61.21875 L 31.914062 61.0625 C 30.542969 63.742188 29.027344 66.378906 27.023438 69.59375 L 26.3125 70.71875 C 26.242188 70.824219 26.210938 70.789062 25.992188 70.351562 C 25.515625 69.402344 25.136719 68.304688 24.914062 67.148438 L 24.898438 67.066406 C 24.816406 66.503906 24.765625 65.851562 24.765625 65.195312 C 24.765625 64.359375 24.84375 63.546875 24.992188 62.757812 L 24.976562 62.835938 C 25.164062 61.949219 25.152344 61.972656 25.570312 61.757812 C 27.375 60.835938 33.25 58.082031 33.304688 58.132812 Z M 36.148438 56.960938 L 36.1875 56.976562 C 36.265625 57.117188 36.335938 57.289062 36.398438 57.460938 L 36.40625 57.488281 C 37.0625 59.097656 37.851562 60.488281 38.792969 61.757812 L 38.757812 61.707031 C 39.9375 63.257812 41.242188 64.617188 42.6875 65.8125 L 42.726562 65.847656 C 42.820312 65.925781 42.84375 65.910156 40.535156 66.785156 C 37.574219 67.902344 34.585938 68.941406 31.574219 69.910156 C 30.296875 70.320312 29.214844 70.671875 29.171875 70.691406 C 29.042969 70.734375 29.082031 70.65625 29.457031 70.074219 C 31.410156 66.890625 33.289062 63.175781 34.867188 59.304688 L 35.058594 58.78125 C 35.300781 58.15625 35.535156 57.53125 35.578125 57.390625 C 35.609375 57.222656 35.726562 57.085938 35.886719 57.03125 L 35.890625 57.03125 C 35.964844 56.992188 36.050781 56.96875 36.144531 56.964844 Z M 45.425781 53.304688 C 45.445312 53.730469 45.457031 54.238281 45.457031 54.742188 C 45.457031 55.683594 45.414062 56.621094 45.335938 57.546875 L 45.347656 57.425781 C 45.011719 60.105469 44.441406 62.535156 43.636719 64.851562 L 43.710938 64.597656 C 42.757812 63.789062 41.894531 62.945312 41.09375 62.046875 L 41.070312 62.023438 C 40.089844 60.914062 39.222656 59.667969 38.507812 58.324219 L 38.460938 58.222656 C 38.171875 57.679688 37.90625 57.042969 37.695312 56.382812 L 37.667969 56.296875 C 37.886719 56.140625 45.367188 53.25 45.421875 53.300781 Z M 47.390625 52.550781 C 47.859375 52.726562 48.265625 52.953125 48.632812 53.230469 L 48.617188 53.222656 C 50.972656 54.742188 53.785156 56.332031 56.6875 57.773438 L 57.210938 58.007812 C 57.742188 58.242188 57.800781 58.148438 56.585938 58.972656 C 53.796875 60.835938 50.59375 62.585938 47.238281 64.054688 L 46.832031 64.210938 C 46.402344 64.410156 45.972656 64.59375 45.539062 64.765625 C 45.570312 64.476562 45.628906 64.210938 45.710938 63.957031 L 45.703125 63.984375 C 46.570312 61.019531 47.117188 57.601562 47.210938 54.066406 L 47.210938 54.007812 C 47.21875 52.597656 47.21875 52.585938 47.355469 52.554688 L 47.382812 52.554688 Z M 56.949219 49.414062 C 57.359375 51.511719 57.625 53.960938 57.695312 56.460938 L 57.695312 56.523438 C 57.710938 56.652344 57.71875 56.800781 57.71875 56.949219 C 57.71875 57.140625 57.703125 57.328125 57.675781 57.507812 L 57.679688 57.492188 C 57.570312 57.492188 55.273438 56.144531 53.648438 55.125 C 52.109375 54.15625 50.597656 53.152344 49.109375 52.109375 C 48.972656 52 48.988281 51.996094 50.148438 51.597656 C 52.117188 50.917969 56.800781 49.417969 56.949219 49.417969 Z M 61.246094 46.898438 L 42.472656 53.019531 L 26.148438 60.226562 L 21.582031 61.4375 C 20.417969 62.539062 19.183594 63.660156 17.878906 64.796875 C 16.433594 66.050781 15.082031 67.1875 14.050781 68.007812 C 12.6875 69.136719 11.46875 70.347656 10.363281 71.652344 L 10.328125 71.695312 C 9.207031 73.027344 8.277344 74.570312 7.617188 76.242188 L 7.582031 76.355469 C 7.335938 77.082031 7.195312 77.914062 7.195312 78.785156 C 7.195312 80.511719 7.757812 82.109375 8.710938 83.398438 L 8.695312 83.378906 C 11.359375 86.75 14.808594 89.382812 18.777344 91.019531 L 18.945312 91.078125 C 21.40625 92.144531 24.410156 93.179688 27.5 93.996094 L 27.964844 94.101562 C 33.546875 95.429688 40.132812 96.40625 46.867188 96.820312 L 47.203125 96.835938 C 47.554688 96.855469 47.964844 96.867188 48.382812 96.867188 C 48.84375 96.867188 49.300781 96.851562 49.753906 96.820312 L 49.691406 96.824219 C 50.277344 95.878906 50.890625 94.738281 51.4375 93.5625 L 51.523438 93.351562 C 54.136719 88.328125 56.410156 82.476562 58.039062 76.355469 L 58.175781 75.742188 C 58.976562 72.226562 59.582031 68.046875 59.855469 63.78125 L 59.867188 63.539062 C 59.976562 62.160156 60.011719 57.554688 59.929688 55.988281 C 59.820312 53.539062 59.566406 51.25 59.167969 49.007812 L 59.214844 49.324219 C 59.179688 49.195312 59.164062 49.050781 59.164062 48.898438 C 59.164062 48.84375 59.164062 48.789062 59.171875 48.734375 L 59.171875 48.742188 C 59.226562 48.703125 59.402344 48.644531 61.710938 47.972656 Z M 44.417969 14.0625 C 44.476562 14.066406 44.542969 14.1875 44.71875 14.574219 C 45.203125 15.636719 46.710938 18.511719 47.074219 19.066406 C 47.191406 19.25 47.386719 19.257812 45.382812 18.9375 C 40.582031 18.164062 39.023438 17.902344 39.023438 17.871094 C 39.117188 17.789062 39.222656 17.71875 39.335938 17.664062 L 39.347656 17.664062 C 40.984375 16.734375 42.398438 15.742188 43.710938 14.632812 L 43.667969 14.667969 L 44.351562 14.09375 Z M 27.425781 10.667969 L 29.421875 13.160156 C 30.523438 14.523438 31.625 15.886719 31.867188 16.179688 C 32.011719 16.34375 32.152344 16.523438 32.277344 16.710938 L 32.289062 16.726562 C 32.234375 16.773438 29.398438 16.222656 27.894531 15.871094 C 26.835938 15.648438 25.789062 15.371094 24.757812 15.042969 L 23.976562 14.792969 L 23.980469 14.601562 C 23.992188 13.648438 25.199219 12.230469 27.246094 10.789062 Z M 27.984375 10.222656 L 28.535156 10.410156 C 32.761719 11.667969 37.769531 12.660156 42.914062 13.191406 L 43.273438 13.222656 C 43.742188 13.261719 44.140625 13.304688 44.152344 13.316406 C 43.910156 13.46875 43.617188 13.625 43.316406 13.769531 L 43.261719 13.789062 C 41.25 14.796875 39.035156 16.027344 37.5 16.988281 C 37.234375 17.171875 36.933594 17.339844 36.617188 17.476562 L 36.582031 17.492188 C 36.359375 17.460938 36.136719 17.425781 35.917969 17.382812 L 35.355469 17.292969 L 33.929688 15.90625 C 31.429688 13.484375 29.476562 11.609375 28.71875 10.90625 Z M 41.660156 3.867188 L 41.679688 3.867188 C 41.691406 3.878906 41.742188 4.273438 41.804688 4.742188 C 42.085938 6.976562 42.570312 9 43.25 10.929688 L 43.1875 10.71875 C 43.710938 12.28125 43.71875 12.191406 43.09375 12.015625 C 41.648438 11.613281 35.160156 10.5 30.464844 9.847656 C 30 9.785156 29.535156 9.71875 29.070312 9.640625 C 29.011719 9.582031 32.457031 7.777344 33.984375 7.0625 C 35.941406 6.15625 41.273438 3.9375 41.664062 3.867188 Z M 41.898438 3.136719 C 41.585938 3.101562 36.542969 4.914062 33.304688 6.226562 C 29.507812 7.675781 26.25 9.347656 23.199219 11.320312 L 23.410156 11.191406 C 22.652344 11.710938 22.019531 12.34375 21.519531 13.078125 L 21.503906 13.101562 C 21.449219 13.242188 21.421875 13.40625 21.421875 13.574219 C 21.421875 13.578125 21.421875 13.582031 21.421875 13.585938 L 23.328125 15.382812 L 27.851562 16.824219 L 38.625 18.753906 L 50.9375 20.867188 L 51.0625 19.816406 L 50.953125 19.796875 L 49.332031 19.539062 L 49 18.960938 C 47.328125 16.007812 45.792969 12.980469 44.402344 9.882812 C 43.707031 8.351562 43.003906 6.449219 42.421875 4.5 L 42.335938 4.164062 C 42.070312 3.210938 42.039062 3.15625 41.898438 3.132812 Z M 37.996094 47.894531 C 37.136719 48.996094 36.269531 49.976562 35.339844 50.898438 L 35.335938 50.902344 C 32.746094 53.5625 29.859375 55.910156 26.722656 57.898438 L 26.527344 58.015625 C 26.105469 58.285156 25.726562 58.523438 25.667969 58.554688 C 25.578125 58.605469 25.699219 58.46875 27.175781 56.859375 C 28.101562 55.847656 28.816406 55.007812 29.628906 53.960938 C 30.007812 53.414062 30.476562 52.964844 31.023438 52.617188 L 31.039062 52.605469 C 33.136719 51.089844 37.941406 47.835938 37.996094 47.894531 Z M 40.195312 47.351562 C 40.261719 47.335938 40.351562 47.460938 40.742188 48.035156 C 41.527344 49.210938 42.085938 50.605469 42.320312 52.109375 L 42.328125 52.167969 L 42.359375 52.453125 L 40.417969 53.203125 C 36.945312 54.554688 33.738281 55.882812 31.570312 56.875 C 30.960938 57.15625 29.898438 57.664062 29.195312 58.015625 C 28.496094 58.367188 27.929688 58.640625 27.929688 58.625 C 27.929688 58.609375 28.367188 58.277344 28.902344 57.890625 C 32.933594 55 36.4375 51.757812 39.503906 48.136719 L 39.570312 48.054688 C 39.867188 47.695312 40.132812 47.382812 40.167969 47.359375 Z M 35.421875 43.601562 C 36.632812 44.183594 37.671875 44.859375 38.617188 45.644531 L 38.59375 45.621094 C 38.351562 45.875 38.085938 46.097656 37.789062 46.285156 L 37.773438 46.292969 C 36.425781 47.265625 34.375 48.808594 33.191406 49.753906 C 31.941406 50.75 31.898438 50.78125 32.039062 50.5625 C 32.6875 49.625 33.320312 48.554688 33.867188 47.429688 L 33.933594 47.285156 C 34.324219 46.492188 34.726562 45.507812 35.070312 44.5 L 35.121094 44.316406 C 35.195312 44.042969 35.296875 43.804688 35.429688 43.589844 Z M 53.347656 39.207031 C 53.382812 39.242188 51.425781 41.976562 50.265625 43.523438 C 48.875 45.371094 46.398438 48.464844 44.695312 50.476562 C 44.261719 51.007812 43.8125 51.523438 43.347656 52.023438 C 43.308594 52.039062 43.289062 51.832031 43.285156 51.507812 C 43.269531 49.644531 42.824219 47.890625 42.050781 46.328125 L 42.082031 46.398438 C 41.757812 45.742188 41.703125 45.585938 41.769531 45.523438 C 42.035156 45.28125 46.167969 42.921875 48.773438 41.527344 C 50.570312 40.570312 53.316406 39.167969 53.347656 39.207031 Z M 56.308594 38.464844 L 57 38.914062 C 58.867188 40.144531 60.464844 41.332031 61.992188 42.601562 L 61.898438 42.523438 C 62.703125 43.195312 64.261719 44.59375 64.582031 44.929688 L 64.753906 45.117188 L 63.605469 45.4375 C 57.734375 47.039062 51.941406 48.894531 46.226562 50.996094 C 45.574219 51.234375 45.019531 51.433594 44.976562 51.433594 C 44.898438 51.433594 44.816406 51.507812 46.277344 50.164062 C 49.828125 46.925781 52.964844 43.335938 55.671875 39.429688 L 55.808594 39.21875 Z M 45.03125 33.824219 C 44.792969 34.929688 44.539062 35.847656 44.234375 36.742188 L 44.289062 36.554688 C 43.371094 39.257812 42.269531 41.59375 40.9375 43.773438 L 41.023438 43.617188 L 40.675781 44.191406 L 39.882812 43.421875 C 39.128906 42.652344 38.257812 42.003906 37.296875 41.496094 L 37.242188 41.46875 C 36.976562 41.351562 36.753906 41.214844 36.539062 41.0625 L 36.554688 41.070312 C 36.554688 40.953125 38.976562 38.753906 40.839844 37.171875 C 42.179688 36.039062 44.996094 33.789062 45.027344 33.820312 Z M 46.886719 33.496094 C 47.085938 33.535156 48.929688 34.394531 50.320312 35.089844 C 51.585938 35.726562 53.511719 36.753906 53.609375 36.84375 C 53.621094 36.855469 52.945312 37.207031 52.101562 37.628906 C 49.433594 38.960938 47.148438 40.222656 44.769531 41.679688 C 44.085938 42.097656 43.519531 42.433594 43.5 42.433594 C 43.441406 42.433594 43.460938 42.382812 43.84375 41.6875 C 45.078125 39.433594 46.070312 36.820312 46.6875 34.070312 L 46.726562 33.867188 C 46.78125 33.628906 46.839844 33.476562 46.882812 33.492188 Z M 78.472656 30.257812 C 78.78125 30.363281 79.046875 30.492188 79.292969 30.65625 L 79.28125 30.648438 C 82.882812 32.726562 85.992188 35.085938 88.773438 37.78125 L 88.761719 37.769531 C 89.519531 38.507812 91.367188 40.4375 91.339844 40.449219 L 89.921875 40.5625 C 82.070312 41.273438 74.925781 42.507812 67.984375 44.257812 L 68.949219 44.050781 C 68.449219 44.164062 68.023438 44.269531 67.992188 44.269531 C 67.960938 44.269531 68.507812 43.722656 69.207031 43.050781 C 72.757812 39.890625 75.652344 36.085938 77.726562 31.804688 L 77.820312 31.589844 C 78.164062 30.898438 78.457031 30.289062 78.464844 30.257812 L 78.476562 30.257812 Z M 77.386719 29.972656 C 77.414062 30.003906 76.476562 31.476562 75.886719 32.316406 C 75.027344 33.539062 73.789062 35.148438 70.960938 38.710938 L 67.238281 43.402344 C 66.898438 43.84375 66.546875 44.277344 66.1875 44.703125 C 66.054688 44.539062 65.925781 44.351562 65.800781 44.160156 L 65.785156 44.132812 C 64.144531 41.703125 62.246094 39.617188 60.09375 37.824219 L 60.042969 37.785156 C 59.699219 37.496094 59.347656 37.210938 58.992188 36.933594 C 58.882812 36.859375 58.789062 36.78125 58.703125 36.691406 C 58.703125 36.652344 61.113281 35.621094 62.953125 34.871094 C 66.515625 33.441406 70.132812 32.152344 73.800781 31.007812 C 75.523438 30.476562 77.363281 29.953125 77.386719 29.976562 Z M 35.953125 29.929688 C 35.992188 29.894531 37.960938 30.351562 39.035156 30.652344 C 41.121094 31.238281 42.800781 31.816406 44.4375 32.472656 L 44.078125 32.347656 C 44.078125 32.363281 43.699219 32.695312 43.238281 33.082031 C 41.382812 34.632812 39.589844 36.257812 37.445312 38.324219 C 37.0625 38.710938 36.660156 39.082031 36.242188 39.4375 C 36.214844 39.4375 36.207031 39.347656 36.21875 39.242188 C 36.34375 38.179688 36.414062 36.945312 36.414062 35.695312 C 36.414062 33.925781 36.273438 32.1875 36 30.496094 L 36.023438 30.679688 C 35.984375 30.460938 35.957031 30.207031 35.945312 29.945312 L 35.945312 29.9375 Z M 61.648438 24.027344 C 61.777344 24.027344 64.367188 24.730469 65.699219 25.132812 C 69.589844 26.296875 72.796875 27.496094 75.902344 28.878906 L 75.367188 28.664062 L 76.398438 29.132812 L 75.667969 29.304688 C 69.320312 30.730469 63.859375 32.46875 58.609375 34.617188 L 59.316406 34.363281 C 58.898438 34.535156 58.535156 34.675781 58.507812 34.675781 C 58.585938 34.398438 58.683594 34.160156 58.808594 33.933594 L 58.800781 33.953125 C 60.167969 31.207031 61.136719 28.007812 61.53125 24.636719 L 61.542969 24.5 C 61.566406 24.238281 61.613281 24.027344 61.648438 24.027344 Z M 60.570312 23.859375 C 60.515625 24.554688 60.402344 25.195312 60.242188 25.8125 L 60.257812 25.734375 C 59.332031 28.855469 58.117188 31.574219 56.601562 34.09375 L 56.691406 33.929688 C 56.492188 34.304688 56.292969 34.617188 56.078125 34.917969 L 56.097656 34.894531 C 55.765625 34.753906 55.484375 34.601562 55.21875 34.429688 L 55.242188 34.445312 C 53.699219 33.53125 51.871094 32.617188 49.976562 31.832031 L 49.675781 31.722656 C 49.308594 31.578125 48.945312 31.421875 48.589844 31.253906 C 48.496094 31.167969 53.054688 28.148438 55.472656 26.699219 C 57.40625 25.539062 60.519531 23.804688 60.570312 23.863281 Z M 45.496094 20.875 C 45.539062 20.835938 51.367188 21.84375 54.019531 22.351562 C 55.992188 22.726562 58.851562 23.324219 59.023438 23.398438 C 59.105469 23.429688 58.8125 23.59375 57.863281 24.023438 C 54.277344 25.601562 51.226562 27.289062 48.347656 29.210938 L 48.570312 29.070312 C 47.84375 29.554688 47.238281 29.953125 47.226562 29.953125 C 47.207031 29.757812 47.195312 29.527344 47.195312 29.300781 C 47.195312 29.214844 47.195312 29.128906 47.199219 29.042969 L 47.199219 29.054688 C 47.199219 29.039062 47.199219 29.023438 47.199219 29 C 47.199219 26.234375 46.636719 23.601562 45.625 21.207031 L 45.675781 21.335938 C 45.609375 21.207031 45.550781 21.050781 45.503906 20.886719 L 45.5 20.867188 Z M 44.523438 20.734375 C 44.757812 21.191406 44.933594 21.722656 45.023438 22.28125 L 45.023438 22.3125 C 45.460938 24.011719 45.710938 25.960938 45.710938 27.972656 C 45.710938 28.695312 45.679688 29.414062 45.617188 30.125 L 45.621094 30.035156 L 45.574219 30.179688 L 44.84375 29.945312 C 43.328125 29.460938 40.859375 28.738281 38.742188 28.148438 C 38.007812 27.960938 37.277344 27.738281 36.554688 27.488281 C 37.355469 26.601562 38.175781 25.78125 39.035156 25.007812 L 39.0625 24.980469 C 40.683594 23.566406 42.460938 22.171875 44.3125 20.875 L 44.519531 20.738281 Z M 32.230469 18.398438 C 32.515625 18.429688 32.773438 18.476562 33.027344 18.539062 L 32.992188 18.535156 C 35.414062 19.066406 39.730469 19.898438 42.503906 20.367188 C 42.820312 20.40625 43.101562 20.46875 43.378906 20.5625 L 43.347656 20.554688 C 43.238281 20.648438 43.113281 20.730469 42.972656 20.789062 L 42.960938 20.792969 C 42.496094 21.027344 40.613281 22.15625 39.984375 22.578125 C 38.476562 23.574219 37.164062 24.632812 35.953125 25.792969 L 35.960938 25.785156 C 35.710938 26.039062 35.457031 26.289062 35.195312 26.535156 C 35.132812 26.386719 35.078125 26.207031 35.039062 26.023438 L 35.035156 26 C 34.273438 23.28125 33.40625 20.976562 32.375 18.761719 L 32.496094 19.054688 C 32.394531 18.84375 32.300781 18.628906 32.21875 18.410156 Z M 25.242188 16.472656 C 25.453125 16.523438 25.632812 16.582031 25.804688 16.648438 L 25.773438 16.636719 C 26.304688 16.820312 27.007812 17.027344 27.828125 17.257812 C 28.398438 17.414062 29.027344 17.585938 29.699219 17.757812 C 30.550781 17.976562 31.257812 18.164062 31.265625 18.175781 C 31.359375 18.28125 32.792969 22.851562 33.28125 24.605469 C 33.46875 25.277344 33.609375 25.835938 33.597656 25.847656 C 33.46875 25.6875 33.351562 25.507812 33.253906 25.320312 L 33.242188 25.300781 C 31.289062 22.054688 28.851562 19.3125 25.992188 17.085938 L 25.925781 17.039062 C 25.691406 16.859375 25.460938 16.671875 25.238281 16.476562 Z M 21.585938 12.921875 C 21.492188 13.105469 21.4375 13.320312 21.4375 13.554688 C 21.4375 13.773438 21.488281 13.976562 21.574219 14.160156 L 21.570312 14.148438 C 21.929688 14.765625 22.371094 15.289062 22.890625 15.71875 L 22.898438 15.726562 C 22.898438 15.726562 29.207031 21.878906 29.980469 22.769531 C 33.179688 26.261719 35.136719 30.933594 35.136719 36.0625 C 35.136719 36.128906 35.136719 36.195312 35.136719 36.261719 L 35.136719 36.253906 C 35.140625 36.410156 35.144531 36.59375 35.144531 36.777344 C 35.144531 40.304688 34.316406 43.632812 32.84375 46.585938 L 32.898438 46.457031 C 28.128906 55.023438 21.824219 62.175781 14.292969 67.769531 L 14.117188 67.894531 L 15.523438 67.425781 C 16.945312 66.433594 18.601562 65.441406 20.3125 64.554688 L 20.566406 64.433594 C 27.023438 60.871094 34.75 57.339844 42.742188 54.355469 L 43.992188 53.945312 C 57.320312 48.9375 73.277344 44.523438 89.722656 41.480469 L 92.820312 41.007812 L 92.625 40.695312 C 91.65625 39.160156 90.71875 37.851562 89.710938 36.601562 L 89.773438 36.683594 C 87.003906 33.296875 83.664062 30.492188 79.882812 28.394531 L 79.707031 28.304688 C 73.382812 24.945312 66.039062 22.390625 58.289062 21.03125 L 57.835938 20.964844 C 54.992188 20.429688 52.140625 19.941406 49.28125 19.5 C 44.164062 18.714844 39.054688 17.882812 33.957031 17 C 32.296875 16.707031 29.816406 16.292969 28.171875 15.9375 C 26.648438 15.613281 25.386719 15.265625 24.160156 14.855469 L 24.417969 14.929688 C 23.371094 14.523438 21.898438 14.121094 21.585938 12.921875 Z M 21.585938 12.921875 "/>
</g>
</svg>
