<?xml version="1.0" encoding="UTF-8"?>
<svg xmlns="http://www.w3.org/2000/svg" xmlns:xlink="http://www.w3.org/1999/xlink" width="100px" height="100px" viewBox="0 0 100 100" version="1.1">
<g id="surface1">
<rect x="0" y="0" width="100" height="100" style="fill:rgb(96.862745%,87.45098%,11.764706%);fill-opacity:1;stroke:none;"/>
<path style=" stroke:none;fill-rule:nonzero;fill:rgb(0%,0%,0%);fill-opacity:1;" d="M 26.292969 83.566406 L 33.945312 78.9375 C 35.421875 81.554688 36.765625 83.769531 39.988281 83.769531 C 43.074219 83.769531 45.023438 82.5625 45.023438 77.863281 L 45.023438 45.910156 L 54.417969 45.910156 L 54.417969 77.996094 C 54.417969 87.726562 48.714844 92.160156 40.390625 92.160156 C 32.871094 92.160156 28.507812 88.265625 26.292969 83.566406 M 59.523438 82.558594 L 67.175781 78.128906 C 69.191406 81.417969 71.808594 83.835938 76.4375 83.835938 C 80.332031 83.835938 82.816406 81.890625 82.816406 79.203125 C 82.816406 75.980469 80.265625 74.839844 75.96875 72.960938 L 73.621094 71.953125 C 66.839844 69.070312 62.34375 65.445312 62.34375 57.789062 C 62.34375 50.742188 67.710938 45.371094 76.105469 45.371094 C 82.078125 45.371094 86.375 47.453125 89.460938 52.890625 L 82.144531 57.589844 C 80.53125 54.703125 78.789062 53.5625 76.101562 53.5625 C 73.351562 53.5625 71.605469 55.308594 71.605469 57.589844 C 71.605469 60.410156 73.351562 61.550781 77.378906 63.296875 L 79.726562 64.304688 C 87.714844 67.726562 92.214844 71.21875 92.214844 79.070312 C 92.214844 87.527344 85.566406 92.160156 76.640625 92.160156 C 67.914062 92.160156 62.273438 88 59.523438 82.5625 "/>
</g>
</svg>
