<?xml version="1.0" encoding="UTF-8"?>
<svg xmlns="http://www.w3.org/2000/svg" xmlns:xlink="http://www.w3.org/1999/xlink" width="100px" height="100px" viewBox="0 0 100 100" version="1.1">
<g id="surface1">
<path style=" stroke:none;fill-rule:nonzero;fill:rgb(32.54902%,75.686275%,87.058824%);fill-opacity:1;" d="M 58.371094 49.925781 C 58.371094 45.441406 54.625 41.808594 50 41.808594 C 45.375 41.808594 41.628906 45.441406 41.628906 49.925781 C 41.628906 54.40625 45.375 58.042969 50 58.042969 C 54.625 58.042969 58.371094 54.40625 58.371094 49.925781 Z M 58.371094 49.925781 "/>
<path style=" stroke:none;fill-rule:evenodd;fill:rgb(32.54902%,75.686275%,87.058824%);fill-opacity:1;" d="M 77.1875 34.855469 C 78.957031 27.890625 81.179688 14.972656 73.34375 10.59375 C 65.546875 6.234375 55.402344 14.589844 50.042969 19.605469 C 44.703125 14.640625 34.269531 6.320312 26.441406 10.714844 C 18.648438 15.085938 21.050781 27.789062 22.859375 34.800781 C 15.589844 36.800781 3.125 41.113281 3.125 49.925781 C 3.125 58.710938 15.574219 63.402344 22.804688 65.402344 C 20.988281 72.449219 18.707031 84.972656 26.511719 89.335938 C 34.367188 93.730469 44.765625 85.609375 50.171875 80.539062 C 55.566406 85.582031 65.613281 93.757812 73.414062 89.378906 C 81.234375 84.988281 79.199219 72.246094 77.390625 65.195312 C 84.398438 63.191406 96.875 58.601562 96.875 49.925781 C 96.875 41.199219 84.34375 36.851562 77.1875 34.855469 Z M 76.300781 61.460938 C 75.113281 57.816406 73.511719 53.945312 71.554688 49.945312 C 73.421875 46.039062 74.960938 42.214844 76.117188 38.597656 C 81.363281 40.070312 92.871094 43.441406 92.871094 49.925781 C 92.871094 56.46875 81.828125 59.871094 76.300781 61.460938 Z M 71.40625 86.019531 C 65.585938 89.285156 56.945312 81.46875 52.960938 77.753906 C 55.605469 74.953125 58.242188 71.695312 60.820312 68.078125 C 65.351562 67.6875 69.632812 67.050781 73.515625 66.179688 C 74.789062 71.167969 77.25 82.738281 71.40625 86.019531 Z M 28.511719 85.972656 C 22.691406 82.71875 25.351562 71.546875 26.6875 66.355469 C 30.527344 67.179688 34.777344 67.769531 39.320312 68.128906 C 41.914062 71.667969 44.628906 74.917969 47.367188 77.769531 C 43.984375 80.941406 34.359375 89.242188 28.511719 85.972656 Z M 7.128906 49.925781 C 7.128906 43.355469 18.570312 40.011719 23.933594 38.539062 C 25.109375 42.238281 26.648438 46.109375 28.503906 50.019531 C 26.621094 53.988281 25.0625 57.917969 23.878906 61.664062 C 18.761719 60.242188 7.128906 56.496094 7.128906 49.925781 Z M 28.449219 14.074219 C 34.292969 10.792969 43.359375 18.78125 47.238281 22.375 C 44.515625 25.210938 41.820312 28.4375 39.25 31.957031 C 34.84375 32.355469 30.621094 32.992188 26.742188 33.84375 C 25.285156 28.191406 22.613281 17.347656 28.449219 14.074219 Z M 63.683594 36.179688 C 66.675781 36.542969 69.542969 37.03125 72.234375 37.625 C 71.425781 40.136719 70.417969 42.761719 69.234375 45.453125 C 67.515625 42.292969 65.667969 39.191406 63.683594 36.179688 Z M 50.042969 25.148438 C 51.890625 27.089844 53.742188 29.257812 55.5625 31.609375 C 51.871094 31.4375 48.171875 31.4375 44.480469 31.605469 C 46.304688 29.277344 48.167969 27.113281 50.042969 25.148438 Z M 30.800781 45.453125 C 29.636719 42.769531 28.636719 40.132812 27.824219 37.585938 C 30.496094 37.003906 33.351562 36.53125 36.320312 36.171875 C 34.332031 39.179688 32.492188 42.277344 30.800781 45.453125 Z M 36.40625 63.957031 C 33.335938 63.625 30.441406 63.171875 27.765625 62.609375 C 28.59375 60.015625 29.613281 57.324219 30.804688 54.582031 C 32.519531 57.792969 34.390625 60.917969 36.40625 63.957031 Z M 50.15625 74.972656 C 48.257812 72.988281 46.363281 70.789062 44.515625 68.429688 C 48.226562 68.570312 51.945312 68.570312 55.660156 68.410156 C 53.832031 70.816406 51.992188 73.015625 50.15625 74.972656 Z M 69.269531 54.445312 C 70.523438 57.214844 71.582031 59.894531 72.417969 62.441406 C 69.699219 63.042969 66.765625 63.527344 63.675781 63.886719 C 65.671875 60.816406 67.546875 57.667969 69.269531 54.445312 Z M 58.585938 64.355469 C 52.90625 64.75 47.191406 64.746094 41.511719 64.390625 C 38.285156 59.816406 35.410156 55.007812 32.929688 50.019531 C 35.398438 45.039062 38.25 40.238281 41.464844 35.675781 C 47.148438 35.257812 52.867188 35.257812 58.554688 35.675781 C 61.738281 40.242188 64.585938 45.027344 67.113281 49.960938 C 64.617188 54.941406 61.75 59.75 58.585938 64.355469 Z M 71.34375 13.957031 C 77.1875 17.226562 74.585938 28.835938 73.3125 33.882812 C 69.421875 33.011719 65.199219 32.367188 60.777344 31.960938 C 58.199219 28.40625 55.53125 25.171875 52.851562 22.375 C 56.78125 18.703125 65.554688 10.722656 71.34375 13.957031 Z M 71.34375 13.957031 "/>
</g>
</svg>
