<?xml version="1.0" encoding="UTF-8"?>
<svg version="1.1" xmlns="http://www.w3.org/2000/svg" width="128" height="128">
<path d="M0 0 C1.23645767 -0.01691895 1.23645767 -0.01691895 2.49789429 -0.03417969 C3.39360138 -0.02608276 4.28930847 -0.01798584 5.2121582 -0.00964355 C6.16216705 -0.01665283 7.1121759 -0.02366211 8.0909729 -0.03088379 C11.23192556 -0.04849205 14.37197759 -0.03683071 17.51293945 -0.02331543 C19.69482598 -0.02600952 21.87671134 -0.02989125 24.05859375 -0.03491211 C28.63170806 -0.04081101 33.20450989 -0.03223135 37.77758789 -0.0135498 C43.64241915 0.00923967 49.50651824 -0.00388127 55.37132263 -0.02783966 C59.87688727 -0.04228687 64.38227805 -0.03769653 68.8878479 -0.02732849 C71.05042609 -0.02465824 73.21302002 -0.0279414 75.37557983 -0.0372467 C78.39705276 -0.0473943 81.41733647 -0.03193568 84.4387207 -0.00964355 C85.78228134 -0.02178894 85.78228134 -0.02178894 87.15298462 -0.03417969 C93.17737885 0.04825451 93.17737885 0.04825451 96.38372803 2.3225708 C98.47288853 5.48934578 98.3238585 8.4562031 98.21606445 12.11730957 C98.21040466 12.84411926 98.20474487 13.57092896 98.19891357 14.31976318 C98.17658498 16.63316702 98.12639993 18.94500177 98.07543945 21.25793457 C98.05536969 22.82952673 98.03711974 24.40114325 98.02075195 25.97277832 C97.97673238 29.81843174 97.9077332 33.66291746 97.82543945 37.50793457 C96.34043945 38.00293457 96.34043945 38.00293457 94.82543945 38.50793457 C94.16543945 38.17793457 93.50543945 37.84793457 92.82543945 37.50793457 C92.49543945 27.27793457 92.16543945 17.04793457 91.82543945 6.50793457 C60.80543945 6.50793457 29.78543945 6.50793457 -2.17456055 6.50793457 C-2.17456055 44.78793457 -2.17456055 83.06793457 -2.17456055 122.50793457 C28.84543945 122.50793457 59.86543945 122.50793457 91.82543945 122.50793457 C92.15543945 115.24793457 92.48543945 107.98793457 92.82543945 100.50793457 C94.14543945 100.17793457 95.46543945 99.84793457 96.82543945 99.50793457 C99.36689785 102.04939296 98.1084339 108.90762612 98.13793945 112.32043457 C98.18144531 113.9804248 98.18144531 113.9804248 98.22583008 115.6739502 C98.23420898 116.73936035 98.24258789 117.80477051 98.2512207 118.90246582 C98.26580322 119.88062256 98.28038574 120.8587793 98.29541016 121.86657715 C97.65886086 125.44414955 96.76726122 126.35990178 93.82543945 128.50793457 C90.700677 129.10979027 87.61278968 129.05420533 84.4387207 129.0255127 C83.01370743 129.03602661 83.01370743 129.03602661 81.55990601 129.04675293 C78.41895334 129.06436119 75.27890132 129.05269985 72.13793945 129.03918457 C69.95605293 129.04187866 67.77416757 129.04576039 65.59228516 129.05078125 C61.01917085 129.05668015 56.44636901 129.04810049 51.87329102 129.02941895 C46.00845976 129.00662947 40.14436066 129.01975041 34.27955627 129.0437088 C29.77399163 129.05815601 25.26860086 129.05356567 20.76303101 129.04319763 C18.60045282 129.04052738 16.43785889 129.04381054 14.27529907 129.05311584 C11.25382615 129.06326344 8.23354244 129.04780482 5.2121582 129.0255127 C4.31645111 129.03360962 3.42074402 129.04170654 2.49789429 129.05004883 C1.67358917 129.03876953 0.84928406 129.02749023 0 129.01586914 C-1.07070488 129.01360699 -1.07070488 129.01360699 -2.16304016 129.01129913 C-5.12134845 128.27100956 -6.32541459 126.89018574 -8.17456055 124.50793457 C-8.67792511 122.15283203 -8.67792511 122.15283203 -8.68249512 119.49816895 C-8.69941406 117.98404419 -8.69941406 117.98404419 -8.7166748 116.43933105 C-8.70452942 114.78719604 -8.70452942 114.78719604 -8.69213867 113.10168457 C-8.69914795 111.93709717 -8.70615723 110.77250977 -8.71337891 109.57263184 C-8.73100487 105.71749124 -8.71931895 101.86308283 -8.70581055 98.00793457 C-8.70850412 95.33279504 -8.71237908 92.65767788 -8.71740723 89.98254395 C-8.72468252 84.37373907 -8.71509926 78.76514494 -8.69604492 73.15637207 C-8.67427612 66.6737555 -8.68132759 60.19164215 -8.70335054 53.70903778 C-8.72150814 48.14116868 -8.7240612 42.57345098 -8.71359587 37.00556183 C-8.70736277 33.68097787 -8.70809253 30.35668205 -8.71974182 27.03210449 C-8.72987803 23.325783 -8.71444539 19.6204335 -8.69213867 15.91418457 C-8.7002356 14.81276123 -8.70833252 13.71133789 -8.7166748 12.57653809 C-8.70539551 11.56712158 -8.69411621 10.55770508 -8.68249512 9.5177002 C-8.68098701 8.64166138 -8.67947891 7.76562256 -8.67792511 6.86303711 C-7.67774517 2.18347383 -4.65795365 0.00984119 0 0 Z " fill="#000000" transform="translate(8.174560546875,-0.5079345703125)"/>
<path d="M0 0 C3.58552881 1.63687185 4.79315055 2.68972583 7 6 C8.30457269 13.08260165 5.94276457 18.10603851 2.375 24.0625 C1.88862061 24.9088501 1.40224121 25.7552002 0.90112305 26.62719727 C-0.15460276 28.45742064 -1.21948966 30.28238377 -2.29248047 32.10253906 C-4.06933093 35.11764648 -5.81981718 38.14696083 -7.56640625 41.1796875 C-9.95259441 45.31619817 -12.3653536 49.43527201 -14.80078125 53.54296875 C-16.6450672 56.65789275 -18.43849505 59.77515354 -20.10546875 62.98828125 C-23.78905407 69.77811291 -28.12417259 74.21634117 -34.1875 78.875 C-35.22269775 79.67212402 -35.22269775 79.67212402 -36.27880859 80.48535156 C-41.2435029 84.04548871 -41.2435029 84.04548871 -44.98828125 83.8203125 C-45.65214844 83.54960938 -46.31601563 83.27890625 -47 83 C-46.85790331 80.3122562 -46.7114277 77.62486698 -46.5625 74.9375 C-46.52318359 74.18533203 -46.48386719 73.43316406 -46.44335938 72.65820312 C-46.35835808 71.14779546 -46.26124318 69.6380233 -46.15234375 68.12915039 C-46.02101586 66.29371686 -45.93044175 64.45545022 -45.84765625 62.6171875 C-44.57688873 57.19446529 -41.75861357 52.91204712 -38.875 48.1875 C-37.6004689 46.05664332 -36.32707239 43.92510768 -35.0546875 41.79296875 C-34.39049805 40.68614746 -33.72630859 39.57932617 -33.04199219 38.43896484 C-30.97295884 34.95445937 -28.94968023 31.44766887 -26.9453125 27.92578125 C-26.61385223 27.3445903 -26.28239197 26.76339935 -25.94088745 26.16459656 C-24.33974432 23.35615114 -22.74294836 20.54535478 -21.15185547 17.73120117 C-10.36058805 -1.13350004 -10.36058805 -1.13350004 0 0 Z M-8.3125 9 C-8.869375 9.99 -9.42625 10.98 -10 12 C-7.03 13.65 -4.06 15.3 -1 17 C0.86870807 13.26258387 1.41702384 11.96172649 1 8 C-0.82473909 5.81108239 -0.82473909 5.81108239 -3.375 5.5 C-6.34825593 5.76539056 -6.34825593 5.76539056 -8.3125 9 Z M-14 18 C-14.37697021 18.67877197 -14.75394043 19.35754395 -15.14233398 20.05688477 C-16.90480728 23.22686833 -18.6705675 26.39499974 -20.4375 29.5625 C-21.07187988 30.70025879 -21.70625977 31.83801758 -22.35986328 33.01025391 C-26.26625593 39.98786573 -30.23682093 46.90942421 -34.50952148 53.67016602 C-36.1891751 56.37791485 -37 57.73925187 -37 61 C-33.04 62.98 -33.04 62.98 -29 65 C-26.27733359 60.38313355 -26.27733359 60.38313355 -23.56323242 55.76123047 C-20.79439084 51.0368072 -18.00067682 46.3286554 -15.18359375 41.6328125 C-13.89305575 39.46364483 -12.60268989 37.29437474 -11.3125 35.125 C-10.67618652 34.073125 -10.03987305 33.02125 -9.38427734 31.9375 C-8.79984863 30.95007812 -8.21541992 29.96265625 -7.61328125 28.9453125 C-7.08516846 28.06375488 -6.55705566 27.18219727 -6.01293945 26.27392578 C-4.65433922 23.91215868 -4.65433922 23.91215868 -6 21 C-8.92079805 18.92469613 -10.37546731 18 -14 18 Z M-40 67 C-40 69.31 -40 71.62 -40 74 C-38.02 72.68 -36.04 71.36 -34 70 C-35.31201173 68.43750191 -35.31201173 68.43750191 -37 67 C-37.99 67 -38.98 67 -40 67 Z " fill="#000000" transform="translate(121,31)"/>
<path d="M0 0 C5.02557011 4.59398489 8.57415064 9.13269363 9.3359375 16.05078125 C9.43443951 24.27569911 8.86703604 29.85322093 3.1640625 35.96875 C-2.85670099 41.59735648 -8.19002391 43.52695881 -16.4140625 43.3046875 C-24.00051066 42.41081596 -28.77103568 38.82782282 -33.58984375 33.09765625 C-37.82140878 26.80305674 -37.69571819 20.35855778 -37 13 C-35.25755061 6.28385012 -30.53948541 1.90576998 -25 -2 C-16.9621337 -6.01893315 -7.37454985 -4.90270999 0 0 Z M-28.80078125 10.37890625 C-31.06721906 13.44265768 -31.18933811 15.60385277 -31.25 19.375 C-31.27578125 20.33148438 -31.3015625 21.28796875 -31.328125 22.2734375 C-30.95439914 25.37892147 -30.06626291 26.70536066 -28 29 C-24.56487945 26.93010283 -24.56487945 26.93010283 -22 24 C-21.71946042 21.12659462 -21.87623303 18.41515517 -22.03515625 15.53515625 C-22 13 -22 13 -20.3125 10.375 C-17.70992945 8.82752562 -16.03045593 8.14782712 -13 8 C-9.18736653 9.06399073 -8.24988993 9.6251651 -6 13 C-6.03610879 14.79432893 -6.14847109 16.58781936 -6.3125 18.375 C-6.49523512 22.47249188 -6.49523512 22.47249188 -4.44921875 25.83203125 C-2.31204924 27.38058047 -2.31204924 27.38058047 1 29 C3.81240841 24.20765606 3.62896846 19.40912879 3 14 C0.64465564 9.10813094 -2.7173458 6.18921058 -7 3 C-16.43254657 -0.14418219 -22.80051215 3.05574318 -28.80078125 10.37890625 Z M-16 14 C-17.12516085 15.83284443 -17.12516085 15.83284443 -18 18 C-17.67 18.99 -17.34 19.98 -17 21 C-15.08333333 21.83333333 -15.08333333 21.83333333 -13 22 C-10.83736927 21.1955029 -10.83736927 21.1955029 -10.25 19.125 C-9.73197594 16.69990757 -9.73197594 16.69990757 -12 14 C-13.32 14 -14.64 14 -16 14 Z M-23 32 C-23.33 32.66 -23.66 33.32 -24 34 C-19.23861467 36.8568312 -15.43932615 37.84180048 -10 37 C-6.59758176 35.6351132 -6.59758176 35.6351132 -4 34 C-8.14189918 29.45789414 -8.14189918 29.45789414 -13.75 27.6875 C-17.80901885 28.07779027 -19.83301684 29.49587378 -23 32 Z " fill="#000000" transform="translate(67,17)"/>
<path d="M0 0 C1.64510941 0.00015915 3.29022379 0.00585551 4.93530273 0.01586914 C6.23164894 0.01799156 6.23164894 0.01799156 7.55418396 0.02015686 C10.32578941 0.025773 13.09731528 0.0383282 15.86889648 0.05102539 C17.74324428 0.05603831 19.61759334 0.06060158 21.49194336 0.06469727 C26.09679192 0.07574767 30.70158069 0.09302309 35.30639648 0.11352539 C35.68858416 1.76967196 36.0203475 3.43809563 36.30639648 5.11352539 C35.30639648 6.11352539 35.30639648 6.11352539 31.61279297 6.22705078 C29.96768356 6.22689163 28.32256917 6.22119528 26.67749023 6.21118164 C25.38114403 6.20905922 25.38114403 6.20905922 24.05860901 6.20689392 C21.28700356 6.20127778 18.51547768 6.18872258 15.74389648 6.17602539 C13.86954869 6.17101247 11.99519963 6.1664492 10.12084961 6.16235352 C5.51600105 6.15130311 0.91121227 6.13402769 -3.69360352 6.11352539 C-4.07579119 4.45737882 -4.40755453 2.78895515 -4.69360352 1.11352539 C-3.69360352 0.11352539 -3.69360352 0.11352539 0 0 Z " fill="#000000" transform="translate(32.693603515625,94.886474609375)"/>
<path d="M0 0 C1.64510941 0.00015915 3.29022379 0.00585551 4.93530273 0.01586914 C6.23164894 0.01799156 6.23164894 0.01799156 7.55418396 0.02015686 C10.32578941 0.025773 13.09731528 0.0383282 15.86889648 0.05102539 C17.74324428 0.05603831 19.61759334 0.06060158 21.49194336 0.06469727 C26.09679192 0.07574767 30.70158069 0.09302309 35.30639648 0.11352539 C35.68858416 1.76967196 36.0203475 3.43809563 36.30639648 5.11352539 C35.30639648 6.11352539 35.30639648 6.11352539 31.61279297 6.22705078 C29.96768356 6.22689163 28.32256917 6.22119528 26.67749023 6.21118164 C25.38114403 6.20905922 25.38114403 6.20905922 24.05860901 6.20689392 C21.28700356 6.20127778 18.51547768 6.18872258 15.74389648 6.17602539 C13.86954869 6.17101247 11.99519963 6.1664492 10.12084961 6.16235352 C5.51600105 6.15130311 0.91121227 6.13402769 -3.69360352 6.11352539 C-4.07579119 4.45737882 -4.40755453 2.78895515 -4.69360352 1.11352539 C-3.69360352 0.11352539 -3.69360352 0.11352539 0 0 Z " fill="#000000" transform="translate(32.693603515625,80.886474609375)"/>
<path d="M0 0 C1.64510941 0.00015915 3.29022379 0.00585551 4.93530273 0.01586914 C6.23164894 0.01799156 6.23164894 0.01799156 7.55418396 0.02015686 C10.32578941 0.025773 13.09731528 0.0383282 15.86889648 0.05102539 C17.74324428 0.05603831 19.61759334 0.06060158 21.49194336 0.06469727 C26.09679192 0.07574767 30.70158069 0.09302309 35.30639648 0.11352539 C35.68858416 1.76967196 36.0203475 3.43809563 36.30639648 5.11352539 C35.30639648 6.11352539 35.30639648 6.11352539 31.61279297 6.22705078 C29.96768356 6.22689163 28.32256917 6.22119528 26.67749023 6.21118164 C25.38114403 6.20905922 25.38114403 6.20905922 24.05860901 6.20689392 C21.28700356 6.20127778 18.51547768 6.18872258 15.74389648 6.17602539 C13.86954869 6.17101247 11.99519963 6.1664492 10.12084961 6.16235352 C5.51600105 6.15130311 0.91121227 6.13402769 -3.69360352 6.11352539 C-4.07579119 4.45737882 -4.40755453 2.78895515 -4.69360352 1.11352539 C-3.69360352 0.11352539 -3.69360352 0.11352539 0 0 Z " fill="#000000" transform="translate(32.693603515625,66.886474609375)"/>
<path d="M0 0 C1.58206057 0.00667536 3.16410534 0.0186375 4.74609375 0.03515625 C5.55240234 0.03966797 6.35871094 0.04417969 7.18945312 0.04882812 C9.18753131 0.06065107 11.18557158 0.07858711 13.18359375 0.09765625 C13.56578142 1.75380282 13.89754477 3.42222649 14.18359375 5.09765625 C13.18359375 6.09765625 13.18359375 6.09765625 9.3671875 6.1953125 C7.78512693 6.18863714 6.20308216 6.176675 4.62109375 6.16015625 C3.81478516 6.15564453 3.00847656 6.15113281 2.17773438 6.14648438 C0.17965619 6.13466143 -1.81838408 6.11672539 -3.81640625 6.09765625 C-4.19859392 4.44150968 -4.53035727 2.77308601 -4.81640625 1.09765625 C-3.81640625 0.09765625 -3.81640625 0.09765625 0 0 Z " fill="#000000" transform="translate(54.81640625,108.90234375)"/>
<path d="M0 0 C2.0625 0.4375 2.0625 0.4375 4 1 C3.67 2.65 3.34 4.3 3 6 C1.68 5.67 0.36 5.34 -1 5 C-1 1 -1 1 0 0 Z " fill="#000000" transform="translate(19,95)"/>
<path d="M0 0 C2.0625 0.4375 2.0625 0.4375 4 1 C3.67 2.65 3.34 4.3 3 6 C1.68 5.67 0.36 5.34 -1 5 C-1 1 -1 1 0 0 Z " fill="#000000" transform="translate(19,81)"/>
<path d="M0 0 C2.0625 0.4375 2.0625 0.4375 4 1 C3.67 2.65 3.34 4.3 3 6 C1.68 5.67 0.36 5.34 -1 5 C-1 1 -1 1 0 0 Z " fill="#000000" transform="translate(19,67)"/>
</svg>
