<?xml version="1.0" encoding="UTF-8"?>
<svg xmlns="http://www.w3.org/2000/svg" xmlns:xlink="http://www.w3.org/1999/xlink" width="100px" height="100px" viewBox="0 0 100 100" version="1.1">
<g id="surface1">
<path style=" stroke:none;fill-rule:nonzero;fill:rgb(99.607843%,99.607843%,99.607843%);fill-opacity:1;" d="M 0 0 C 33 0 66 0 100 0 C 100 33 100 66 100 100 C 67 100 34 100 0 100 C 0 67 0 34 0 0 Z M 0 0 "/>
<path style=" stroke:none;fill-rule:nonzero;fill:rgb(1.960784%,62.745098%,78.431373%);fill-opacity:1;" d="M 21.375 41 C 22.613281 40.953125 23.847656 40.917969 25.085938 40.894531 C 25.660156 40.886719 26.234375 40.871094 26.808594 40.847656 C 31.035156 40.683594 31.035156 40.683594 32.15625 41.695312 C 32.464844 42.035156 32.734375 42.378906 32.976562 42.769531 C 33.128906 43.027344 33.128906 43.027344 33.414062 43.300781 C 33.738281 43.796875 33.707031 44.273438 33.710938 44.855469 C 33.710938 44.972656 33.710938 45.089844 33.714844 45.214844 C 33.714844 45.464844 33.71875 45.714844 33.71875 45.96875 C 33.71875 46.347656 33.726562 46.730469 33.738281 47.113281 C 33.757812 48.890625 33.757812 48.890625 33.414062 49.503906 C 33.164062 49.75 32.921875 49.9375 32.625 50.125 C 32.464844 50.300781 32.308594 50.476562 32.15625 50.65625 C 31.867188 50.992188 31.570312 51.316406 31.25 51.625 C 31.425781 52.183594 31.640625 52.699219 31.890625 53.230469 C 31.925781 53.308594 31.964844 53.386719 32.003906 53.46875 C 32.121094 53.722656 32.242188 53.972656 32.359375 54.226562 C 32.515625 54.558594 32.671875 54.890625 32.828125 55.222656 C 32.863281 55.300781 32.902344 55.378906 32.941406 55.460938 C 33.21875 56.054688 33.488281 56.648438 33.75 57.25 C 34.164062 57.292969 34.574219 57.332031 35 57.375 C 35 57.992188 35 58.613281 35 59.25 C 33.472656 59.25 31.949219 59.25 30.375 59.25 C 30.375 58.589844 30.375 57.929688 30.375 57.25 C 30.664062 57.25 30.953125 57.25 31.25 57.25 C 30.003906 54.5625 30.003906 54.5625 28.75 51.875 C 27.015625 51.8125 27.015625 51.8125 25.25 51.75 C 25.25 53.605469 25.25 55.460938 25.25 57.375 C 25.746094 57.375 26.238281 57.375 26.75 57.375 C 26.75 57.992188 26.75 58.613281 26.75 59.25 C 24.976562 59.25 23.203125 59.25 21.375 59.25 C 21.375 58.589844 21.375 57.929688 21.375 57.25 C 21.910156 57.25 22.449219 57.25 23 57.25 C 23 52.546875 23 47.84375 23 43 C 22.464844 43 21.925781 43 21.375 43 C 21.375 42.339844 21.375 41.679688 21.375 41 Z M 21.375 41 "/>
<path style=" stroke:none;fill-rule:nonzero;fill:rgb(2.745098%,63.137255%,78.431373%);fill-opacity:1;" d="M 38.375 41 C 42.210938 41 46.046875 41 50 41 C 50 42.566406 50 44.136719 50 45.75 C 49.339844 45.75 48.679688 45.75 48 45.75 C 48 44.84375 48 43.933594 48 43 C 46.144531 43 44.289062 43 42.375 43 C 42.375 45.019531 42.375 47.042969 42.375 49.125 C 44.230469 49.125 46.085938 49.125 48 49.125 C 48 49.785156 48 50.445312 48 51.125 C 46.101562 51.125 44.203125 51.125 42.25 51.125 C 42.25 53.1875 42.25 55.25 42.25 57.375 C 44.148438 57.375 46.046875 57.375 48 57.375 C 48 56.425781 48 55.476562 48 54.5 C 48.660156 54.5 49.320312 54.5 50 54.5 C 50 56.066406 50 57.636719 50 59.25 C 46.164062 59.25 42.328125 59.25 38.375 59.25 C 38.375 58.589844 38.375 57.929688 38.375 57.25 C 38.910156 57.25 39.449219 57.25 40 57.25 C 40 52.546875 40 47.84375 40 43 C 39.464844 43 38.925781 43 38.375 43 C 38.375 42.339844 38.375 41.679688 38.375 41 Z M 38.375 41 "/>
<path style=" stroke:none;fill-rule:nonzero;fill:rgb(1.960784%,62.745098%,78.431373%);fill-opacity:1;" d="M 59.1875 40.804688 C 59.316406 40.804688 59.449219 40.804688 59.582031 40.800781 C 62.253906 40.804688 62.253906 40.804688 63.21875 41.738281 C 63.507812 42.097656 63.761719 42.460938 63.976562 42.875 C 64.117188 43.144531 64.117188 43.144531 64.390625 43.359375 C 64.699219 43.707031 64.683594 43.898438 64.671875 44.359375 C 64.671875 44.496094 64.671875 44.636719 64.667969 44.78125 C 64.664062 44.925781 64.660156 45.070312 64.65625 45.21875 C 64.652344 45.367188 64.652344 45.511719 64.648438 45.664062 C 64.644531 46.027344 64.632812 46.386719 64.625 46.75 C 63.921875 46.75 63.222656 46.75 62.5 46.75 C 62.5 46.398438 62.5 46.046875 62.5 45.6875 C 62.480469 44.9375 62.445312 44.417969 61.875 43.875 C 61.710938 43.746094 61.542969 43.621094 61.375 43.5 C 61.3125 43.375 61.3125 43.375 61.25 43.25 C 60.699219 43.226562 60.148438 43.207031 59.597656 43.195312 C 59.410156 43.191406 59.222656 43.183594 59.035156 43.175781 C 57.75 43.097656 57.75 43.097656 56.628906 43.640625 C 56.054688 44.359375 56.105469 45.179688 56.125 46.0625 C 56.121094 46.300781 56.121094 46.300781 56.113281 46.546875 C 56.121094 47.265625 56.15625 47.894531 56.59375 48.484375 C 57.519531 49.257812 59.085938 48.945312 60.207031 48.886719 C 62.320312 48.792969 62.320312 48.792969 62.9375 49.304688 C 63.183594 49.554688 63.390625 49.824219 63.597656 50.113281 C 63.859375 50.480469 64.089844 50.671875 64.453125 50.933594 C 65.035156 51.511719 65.007812 52.230469 65.023438 53.007812 C 65.023438 53.238281 65.023438 53.46875 65.019531 53.695312 C 65.015625 54.046875 65.023438 54.394531 65.035156 54.742188 C 65.046875 56.359375 65.046875 56.359375 64.605469 57.046875 C 64.292969 57.355469 63.976562 57.613281 63.625 57.875 C 63.457031 58.054688 63.292969 58.238281 63.132812 58.429688 C 63.007812 58.578125 62.878906 58.726562 62.75 58.875 C 62.695312 58.941406 62.644531 59.003906 62.589844 59.070312 C 62.304688 59.308594 62.128906 59.300781 61.761719 59.308594 C 61.636719 59.3125 61.511719 59.316406 61.382812 59.316406 C 61.25 59.320312 61.113281 59.320312 60.976562 59.320312 C 60.765625 59.324219 60.765625 59.324219 60.554688 59.328125 C 60.257812 59.332031 59.964844 59.332031 59.671875 59.332031 C 59.222656 59.335938 58.773438 59.347656 58.324219 59.355469 C 58.039062 59.359375 57.753906 59.359375 57.46875 59.359375 C 57.332031 59.363281 57.199219 59.367188 57.0625 59.371094 C 56.144531 59.363281 56.144531 59.363281 55.726562 59.03125 C 55.503906 58.78125 55.316406 58.523438 55.125 58.25 C 54.929688 58.050781 54.730469 57.851562 54.53125 57.65625 C 53.644531 56.796875 53.644531 56.796875 53.582031 56.28125 C 53.585938 56.152344 53.585938 56.023438 53.589844 55.890625 C 53.589844 55.753906 53.589844 55.613281 53.59375 55.46875 C 53.59375 55.324219 53.597656 55.179688 53.601562 55.03125 C 53.601562 54.882812 53.605469 54.738281 53.605469 54.585938 C 53.609375 54.222656 53.617188 53.863281 53.625 53.5 C 54.285156 53.5 54.945312 53.5 55.625 53.5 C 55.621094 53.648438 55.613281 53.796875 55.609375 53.949219 C 55.609375 54.148438 55.609375 54.347656 55.609375 54.546875 C 55.605469 54.644531 55.601562 54.742188 55.59375 54.839844 C 55.605469 55.511719 55.8125 55.925781 56.242188 56.441406 C 57.066406 57.195312 57.90625 57.183594 58.96875 57.148438 C 59.273438 57.140625 59.578125 57.144531 59.882812 57.148438 C 60.910156 57.164062 60.910156 57.164062 61.824219 56.765625 C 62.0625 56.5 62.0625 56.5 62.238281 56.214844 C 62.28125 56.144531 62.328125 56.074219 62.375 56 C 62.457031 56 62.539062 56 62.625 56 C 62.632812 55.484375 62.632812 54.96875 62.625 54.453125 C 62.625 54.277344 62.625 54.101562 62.628906 53.925781 C 62.648438 52.714844 62.648438 52.714844 62.15625 51.632812 C 61.285156 50.917969 59.921875 51.152344 58.867188 51.1875 C 56.472656 51.261719 56.472656 51.261719 55.90625 50.914062 C 55.6875 50.660156 55.535156 50.417969 55.375 50.125 C 55.230469 49.96875 55.078125 49.816406 54.921875 49.671875 C 54.777344 49.535156 54.636719 49.394531 54.5 49.25 C 54.394531 49.144531 54.289062 49.039062 54.179688 48.929688 C 53.789062 48.453125 53.769531 48.015625 53.761719 47.417969 C 53.757812 47.3125 53.757812 47.210938 53.753906 47.105469 C 53.75 46.886719 53.746094 46.667969 53.746094 46.449219 C 53.742188 46.121094 53.726562 45.792969 53.710938 45.464844 C 53.691406 44.480469 53.707031 43.695312 54.371094 42.925781 C 54.632812 42.65625 54.910156 42.410156 55.195312 42.164062 C 55.4375 41.941406 55.605469 41.679688 55.792969 41.410156 C 56.617188 40.605469 58.117188 40.800781 59.1875 40.804688 Z M 59.1875 40.804688 "/>
<path style=" stroke:none;fill-rule:nonzero;fill:rgb(1.960784%,62.745098%,78.431373%);fill-opacity:1;" d="M 67 41 C 71.371094 41 75.746094 41 80.25 41 C 80.25 42.566406 80.25 44.136719 80.25 45.75 C 79.589844 45.75 78.929688 45.75 78.25 45.75 C 78.25 44.84375 78.25 43.933594 78.25 43 C 77.09375 43 75.941406 43 74.75 43 C 74.75 47.742188 74.75 52.488281 74.75 57.375 C 75.535156 57.375 76.316406 57.375 77.125 57.375 C 77.125 57.992188 77.125 58.613281 77.125 59.25 C 74.816406 59.25 72.503906 59.25 70.125 59.25 C 70.125 58.632812 70.125 58.011719 70.125 57.375 C 70.910156 57.375 71.691406 57.375 72.5 57.375 C 72.5 52.632812 72.5 47.886719 72.5 43 C 71.304688 43 70.109375 43 68.875 43 C 68.875 43.90625 68.875 44.816406 68.875 45.75 C 68.257812 45.75 67.636719 45.75 67 45.75 C 67 44.183594 67 42.613281 67 41 Z M 67 41 "/>
<path style=" stroke:none;fill-rule:nonzero;fill:rgb(11.764706%,72.54902%,54.901961%);fill-opacity:1;" d="M 11.457031 38.464844 C 11.570312 38.464844 11.683594 38.464844 11.796875 38.46875 C 11.914062 38.46875 12.027344 38.472656 12.148438 38.476562 C 12.265625 38.476562 12.382812 38.480469 12.503906 38.480469 C 12.792969 38.484375 13.085938 38.492188 13.375 38.5 C 13.375 39.203125 13.375 39.902344 13.375 40.625 C 12.839844 40.625 12.300781 40.625 11.75 40.625 C 11.667969 40.789062 11.585938 40.953125 11.5 41.125 C 11.375 41.238281 11.242188 41.347656 11.109375 41.453125 C 10.890625 41.667969 10.761719 41.804688 10.707031 42.109375 C 10.738281 43.207031 10.839844 44.296875 10.9375 45.390625 C 10.964844 45.691406 10.992188 45.996094 11.019531 46.296875 C 11.035156 46.484375 11.050781 46.671875 11.066406 46.859375 C 11.210938 48.503906 11.210938 48.503906 10.929688 48.898438 C 10.796875 48.992188 10.796875 48.992188 10.664062 49.09375 C 10.527344 49.199219 10.527344 49.199219 10.390625 49.308594 C 10.300781 49.371094 10.214844 49.433594 10.125 49.5 C 10 49.601562 9.878906 49.699219 9.75 49.804688 C 9.625 49.902344 9.625 49.902344 9.5 50 C 9.679688 50.421875 9.894531 50.65625 10.242188 50.945312 C 10.410156 51.085938 10.582031 51.230469 10.75 51.375 C 10.851562 51.449219 10.851562 51.449219 10.953125 51.527344 C 11.207031 51.855469 11.144531 52.089844 11.109375 52.5 C 11.097656 52.648438 11.085938 52.800781 11.074219 52.953125 C 11.0625 53.109375 11.046875 53.269531 11.03125 53.429688 C 11.019531 53.582031 11.007812 53.734375 10.992188 53.890625 C 10.957031 54.34375 10.914062 54.796875 10.875 55.25 C 10.84375 55.640625 10.808594 56.035156 10.777344 56.425781 C 10.753906 56.6875 10.730469 56.949219 10.703125 57.210938 C 10.65625 57.9375 10.699219 58.4375 11.140625 59.03125 C 11.621094 59.507812 12.023438 59.582031 12.6875 59.632812 C 13.089844 59.628906 13.089844 59.628906 13.5 59.625 C 13.5 60.328125 13.5 61.027344 13.5 61.75 C 11.125 62.011719 11.125 62.011719 10.371094 61.421875 C 10.011719 61.085938 9.707031 60.714844 9.410156 60.324219 C 9.199219 60.0625 8.957031 59.851562 8.710938 59.625 C 8.148438 58.9375 8.324219 58.042969 8.402344 57.207031 C 8.433594 56.882812 8.46875 56.558594 8.503906 56.238281 C 8.539062 55.890625 8.574219 55.546875 8.609375 55.203125 C 8.636719 54.96875 8.664062 54.734375 8.695312 54.5 C 8.910156 53.230469 8.910156 53.230469 8.621094 52.03125 C 8.347656 51.71875 8.042969 51.492188 7.695312 51.269531 C 7.273438 50.914062 7.253906 50.65625 7.203125 50.117188 C 7.234375 49.660156 7.234375 49.660156 7.375 49.25 C 7.691406 48.984375 7.691406 48.984375 8.070312 48.75 C 8.574219 48.402344 8.574219 48.402344 8.808594 47.859375 C 8.84375 47.15625 8.757812 46.460938 8.671875 45.761719 C 8.609375 45.234375 8.566406 44.703125 8.523438 44.171875 C 8.503906 43.917969 8.480469 43.664062 8.457031 43.410156 C 8.425781 43.066406 8.398438 42.722656 8.375 42.375 C 8.363281 42.207031 8.363281 42.207031 8.347656 42.03125 C 8.320312 41.496094 8.3125 41.21875 8.617188 40.765625 C 8.726562 40.671875 8.832031 40.578125 8.945312 40.484375 C 9.058594 40.382812 9.171875 40.28125 9.289062 40.175781 C 9.457031 40.027344 9.457031 40.027344 9.625 39.875 C 9.863281 39.617188 10.089844 39.351562 10.316406 39.085938 C 10.375 39.015625 10.4375 38.945312 10.5 38.875 C 10.582031 38.777344 10.582031 38.777344 10.664062 38.675781 C 10.941406 38.445312 11.097656 38.457031 11.457031 38.464844 Z M 11.457031 38.464844 "/>
<path style=" stroke:none;fill-rule:nonzero;fill:rgb(11.372549%,72.54902%,54.509804%);fill-opacity:1;" d="M 89.5 38.5 C 91.746094 38.238281 91.746094 38.238281 92.496094 38.828125 C 92.855469 39.164062 93.164062 39.535156 93.464844 39.921875 C 93.675781 40.1875 93.921875 40.414062 94.164062 40.648438 C 94.957031 41.617188 94.414062 43.585938 94.3125 44.765625 C 94.285156 45.085938 94.257812 45.40625 94.230469 45.726562 C 94.214844 45.925781 94.199219 46.121094 94.183594 46.320312 C 94.132812 46.921875 94.09375 47.519531 94.125 48.125 C 94.421875 48.421875 94.421875 48.421875 94.8125 48.640625 C 95.25 48.96875 95.464844 49.144531 95.636719 49.671875 C 95.679688 50.355469 95.644531 50.808594 95.226562 51.363281 C 94.402344 52.125 94.402344 52.125 94 52.125 C 94.023438 52.28125 94.023438 52.28125 94.046875 52.445312 C 94.199219 53.570312 94.304688 54.699219 94.390625 55.835938 C 94.402344 55.976562 94.414062 56.113281 94.421875 56.257812 C 94.453125 56.671875 94.476562 57.085938 94.5 57.5 C 94.519531 57.710938 94.519531 57.710938 94.539062 57.929688 C 94.582031 58.652344 94.582031 59.128906 94.109375 59.699219 C 93.941406 59.867188 93.769531 60.027344 93.59375 60.1875 C 93.421875 60.351562 93.253906 60.519531 93.085938 60.683594 C 93.003906 60.757812 92.921875 60.835938 92.835938 60.914062 C 92.601562 61.132812 92.601562 61.132812 92.398438 61.492188 C 92.003906 61.863281 91.671875 61.8125 91.148438 61.804688 C 91.027344 61.800781 90.90625 61.792969 90.78125 61.789062 C 90.660156 61.785156 90.535156 61.785156 90.410156 61.78125 C 90.105469 61.773438 89.804688 61.761719 89.5 61.75 C 89.5 61.046875 89.5 60.347656 89.5 59.625 C 89.746094 59.625 89.996094 59.625 90.25 59.625 C 90.847656 59.574219 91.257812 59.5 91.726562 59.117188 C 92.367188 58.339844 92.214844 57.4375 92.125 56.5 C 92.113281 56.347656 92.097656 56.199219 92.082031 56.042969 C 92.019531 55.355469 91.957031 54.667969 91.882812 53.976562 C 91.867188 53.816406 91.847656 53.65625 91.832031 53.488281 C 91.808594 53.269531 91.808594 53.269531 91.785156 53.046875 C 91.6875 51.847656 91.6875 51.847656 91.914062 51.496094 C 92.027344 51.398438 92.027344 51.398438 92.140625 51.296875 C 92.21875 51.226562 92.300781 51.152344 92.378906 51.082031 C 92.460938 51.011719 92.542969 50.945312 92.625 50.875 C 92.699219 50.8125 92.773438 50.746094 92.851562 50.679688 C 93.023438 50.535156 93.199219 50.390625 93.375 50.25 C 93.234375 49.828125 93.105469 49.71875 92.773438 49.4375 C 92.6875 49.363281 92.601562 49.289062 92.511719 49.214844 C 92.257812 48.992188 92.257812 48.992188 91.964844 48.847656 C 91.75 48.625 91.75 48.625 91.71875 48.175781 C 91.730469 47.984375 91.746094 47.792969 91.765625 47.601562 C 91.777344 47.445312 91.777344 47.445312 91.789062 47.289062 C 91.8125 46.941406 91.84375 46.597656 91.875 46.25 C 91.910156 45.859375 91.941406 45.46875 91.972656 45.078125 C 91.996094 44.824219 92.019531 44.570312 92.042969 44.316406 C 92.226562 42.882812 92.226562 42.882812 91.964844 41.5 C 91.425781 40.898438 91.0625 40.683594 90.25 40.617188 C 90.003906 40.621094 89.753906 40.621094 89.5 40.625 C 89.5 39.921875 89.5 39.222656 89.5 38.5 Z M 89.5 38.5 "/>
<path style=" stroke:none;fill-rule:nonzero;fill:rgb(98.431373%,99.215686%,99.607843%);fill-opacity:1;" d="M 25.25 43.125 C 26.449219 43.085938 26.449219 43.085938 27.671875 43.046875 C 28.046875 43.03125 28.046875 43.03125 28.429688 43.011719 C 29.414062 42.984375 30.242188 42.960938 31.027344 43.632812 C 31.617188 44.375 31.691406 45.121094 31.664062 46.050781 C 31.65625 46.304688 31.664062 46.558594 31.671875 46.8125 C 31.664062 47.683594 31.546875 48.339844 31.027344 49.054688 C 30.324219 49.726562 29.664062 49.761719 28.738281 49.757812 C 28.382812 49.746094 28.027344 49.730469 27.671875 49.710938 C 26.871094 49.683594 26.074219 49.652344 25.25 49.625 C 25.25 47.480469 25.25 45.335938 25.25 43.125 Z M 25.25 43.125 "/>
</g>
</svg>
